<svg width="144" height="144" viewBox="0 0 144 144" fill="none" xmlns="http://www.w3.org/2000/svg">
        <path d="M74.3692 103.309V121.892L99.9811 129.02V103.309H74.3692ZM48.4761 14.7406L71.1875 19.7809L71.2 9.11963V5.84619L48.4761 14.7406ZM96.3183 131.286L74.3692 125.177V139.079L96.3183 131.286ZM96.3183 11.7178L74.3692 5.60898V19.5109L96.3183 11.7178ZM134.102 96.3002L139.137 73.5401H125.222L134.102 96.3002ZM131.083 48.3824L124.984 70.3659H138.865L131.083 48.3824ZM11.7028 48.3824L5.60313 70.3659H19.4836L11.7028 48.3824ZM14.7211 96.2996L19.7558 73.5401H5.84031L14.7211 96.2996ZM71.1623 41.5397L71.1838 23.0188L44.6471 17.1294V41.5397H71.1623ZM44.6471 44.7139V45.5164L44.7471 83.5477L56.295 72.7693L58.4924 72.8068L84.6476 99.0033L98.8517 84.7771L72.6958 58.5808V56.3369L84.2312 44.7838L46.4754 44.7139H44.6471ZM44.6471 87.9706V100.135H81.2961L57.331 76.1318L44.6471 87.9706ZM44.6471 103.309V132.38L71.1548 121.664V103.309H44.6471ZM71.2 125.06L48.3751 134.287L71.2 139.352V125.06ZM41.4776 134.727V103.309H15.1381L13.6651 102.298L2.0496 72.5296L2.38408 72.0385L2 71.5316L9.99748 42.7054L11.5205 41.5397H41.4776V15.1586L42.4868 13.6833L72.2089 2.04987L72.6989 2.38554L73.2053 2L101.987 10.01L103.15 11.5356V41.5397H130.902L132.393 42.5997L142.596 71.426L142.294 71.8544L142.646 72.2943L136.06 102.063L134.519 103.309H103.15V131.104L102.092 132.598L73.3108 142.817L72.8831 142.514L72.4439 142.866L42.7218 136.271L41.4776 134.727ZM41.4776 100.135V73.5401H22.9891L17.1057 100.135H41.4776ZM41.4776 70.3659V44.7139H13.7605L22.8401 70.3659H41.4776ZM99.9811 100.135V88.1338L87.9991 100.135H99.9811ZM99.9811 81.4203V44.7139H88.7821L76.0567 57.4589L99.9811 81.4203ZM99.9811 41.5397V13.7791L74.3692 22.8727V41.5397H99.9811ZM103.15 44.7139V70.3659H121.704L128.822 44.7139H103.15ZM103.15 73.5401V100.135H132.202L121.825 73.5401H103.15Z"
              fill="#fefefe" stroke="#fefefe" stroke-width="1"/>
</svg>